{"title":"[youshikibi] Wizard Barristers - Benmashi Cecil - 04 (1280x720 h","uid":9562496,"size":325404631,"categoryP":"video","categoryS":"hd___tv_shows","magnet":"?xt=urn:btih:275091b557fe8e6308c6746da5753d3068015b31&amp;dn=%5Byoushikibi%5D+Wizard+Barristers+-+Benmashi+Cecil+-+04+%281280x720+h&amp;tr=udp%3A%2F%2Ftracker.openbittorrent.com%3A80&amp;tr=udp%3A%2F%2Fopen.demonii.com%3A1337&amp;tr=udp%3A%2F%2Ftracker.coppersurfer.tk%3A6969&amp;tr=udp%3A%2F%2Fexodus.desync.com%3A6969","seeders":1,"leechers":0,"uploader":"youshikibi","files":1,"time":1391456669,"description":"Anime: Wizard Barristers: Benmashi Cecil\nEpisode: 04\n\n\nVIDEO\n=====\nID : 1\nFormat : MPEG-4 (playable on PS3, Xbox 360, etc.)\nFormat/Info : Advanced Video Codec\nFormat profile : &lt;a class=&quot;__cf_email__&quot; href=&quot;/cdn-cgi/l/email-protection&quot; data-cfemail=&quot;89c1e0eee1c9c5bda7b8&quot;&gt;[email&amp;#160;protected]&lt;/a&gt;&lt;script cf-hash='f9e31' type=&quot;text/javascript&quot;&gt;\n/* &lt;![CDATA[ */!function(){try{var t=&quot;currentScript&quot;in document?document.currentScript:function(){for(var t=document.getElementsByTagName(&quot;script&quot;),e=t.length;e--;)if(t[e].getAttribute(&quot;cf-hash&quot;))return t[e]}();if(t&amp;&amp;t.previousSibling){var e,r,n,i,c=t.previousSibling,a=c.getAttribute(&quot;data-cfemail&quot;);if(a){for(e=&quot;&quot;,r=parseInt(a.substr(0,2),16),n=2;a.length-n;n+=2)i=parseInt(a.substr(n,2),16)^r,e+=String.fromCharCode(i);e=document.createTextNode(e),c.parentNode.replaceChild(e,c)}}}catch(u){}}();/* ]]&gt; */&lt;/script&gt;\nFormat settings, CABAC : Yes\nFormat settings, ReFrames : 1 frames\nCodec ID : avc1\nCodec ID/Info : Advanced Video Coding\nDuration : 23mn 49s\nBit rate : 1 689 Kbps\nMaximum bit rate : 17.2 Mbps\nWidth : 1 280 pixels\nHeight : 720 pixels\nDisplay aspect ratio : 16:9\nFrame rate mode : Constant\nFrame rate : 23.976 fps\nColor space : YUV\nChroma subsampling : 4:2:0\nBit depth : 8 bits\nScan type : Progressive\nBits/(Pixel*Frame) : 0.092\nStream size : 288 MiB (93%)\n\n\nAUDIO\n=====\nID : 2\nFormat : AAC\nFormat/Info : Advanced Audio Codec\nFormat profile : LC\nCodec ID : 40\nDuration : 23mn 49s\nBit rate mode : Variable\nBit rate : 128 Kbps\nMaximum bit rate : 134 Kbps\nChannel count : 2 channels\nChannel positions : Front: L R\nSampling rate : 48.0 KHz\nCompression mode : Lossy\nDelay relative to video : 42ms\nStream size : 21.8 MiB (7%)\n\n\nSUBTITLES\n========\nEnglish subtitles from Doki fansubs","torrent":{"xt":"urn:btih:275091b557fe8e6308c6746da5753d3068015b31","amp;dn":"%5Byoushikibi%5D+Wizard+Barristers+-+Benmashi+Cecil+-+04+%281280x720+h","amp;tr":["udp%3A%2F%2Ftracker.openbittorrent.com%3A80","udp%3A%2F%2Fopen.demonii.com%3A1337","udp%3A%2F%2Ftracker.coppersurfer.tk%3A6969","udp%3A%2F%2Fexodus.desync.com%3A6969"],"infoHash":"275091b557fe8e6308c6746da5753d3068015b31","infoHashBuffer":{"type":"Buffer","data":[39,80,145,181,87,254,142,99,8,198,116,109,165,117,61,48,104,1,91,49]},"announce":[],"urlList":[]}}